<?xml version="1.0" standalone="no"?>
<!DOCTYPE svg PUBLIC "-//W3C//DTD SVG 20010904//EN"
 "http://www.w3.org/TR/2001/REC-SVG-20010904/DTD/svg10.dtd">
<svg version="1.0" xmlns="http://www.w3.org/2000/svg"
 width="1024.000000pt" height="1024.000000pt" viewBox="0 0 1024.000000 1024.000000"
 preserveAspectRatio="xMidYMid meet">

<g transform="translate(0.000000,1024.000000) scale(0.100000,-0.100000)"
fill="#000000" stroke="none">
<path d="M4695 9102 c6 -6 30 -13 55 -16 55 -8 34 8 -25 18 -26 5 -37 4 -30
-2z"/>
<path d="M4340 9067 c-14 -13 -109 -39 -155 -42 -33 -2 -28 -20 7 -25 32 -5
32 -6 8 -13 -14 -4 -37 -7 -52 -7 -16 0 -28 -4 -28 -10 0 -5 -8 -10 -19 -10
-10 0 -35 -13 -56 -30 -21 -16 -48 -30 -61 -30 -36 0 -37 -17 -2 -22 41 -6 68
1 68 18 0 15 47 31 58 19 4 -3 -2 -13 -12 -21 -35 -25 -9 -26 31 -1 51 32 79
40 100 28 17 -10 16 -10 -2 -11 -31 0 -101 -50 -85 -60 16 -10 73 -3 123 16
47 18 57 17 33 -1 -29 -22 0 -19 38 4 75 45 202 66 150 25 -18 -14 -17 -15 13
-9 18 4 40 2 50 -4 16 -8 15 -10 -9 -16 -15 -4 -31 -4 -37 -1 -5 4 -12 2 -16
-4 -10 -17 53 -11 103 9 26 10 76 31 112 46 51 20 79 25 125 23 44 -2 59 -7
57 -16 -2 -11 7 -12 40 -7 24 4 49 12 55 17 7 6 20 7 29 4 10 -4 14 -1 12 6
-9 30 -122 70 -232 84 -60 7 -123 18 -140 23 -38 12 -95 19 -206 26 -65 5 -88
3 -100 -8z m172 -18 c85 -18 83 -31 -2 -24 -41 4 -77 8 -80 8 -10 2 -55 -16
-60 -23 -3 -4 -36 -14 -73 -22 -56 -13 -66 -13 -55 -2 7 8 37 20 66 26 29 7
52 18 52 25 0 23 71 29 152 12z m-82 -54 c0 -2 -10 -9 -22 -15 -22 -11 -22
-10 -4 4 21 17 26 19 26 11z m135 -65 c-3 -5 -13 -10 -21 -10 -8 0 -12 5 -9
10 3 6 13 10 21 10 8 0 12 -4 9 -10z"/>
<path d="M4808 9073 c7 -3 16 -2 19 1 4 3 -2 6 -13 5 -11 0 -14 -3 -6 -6z"/>
<path d="M3800 8999 c-30 -11 -83 -29 -118 -39 -35 -10 -66 -21 -70 -25 -14
-13 104 9 139 27 19 10 73 23 120 28 46 6 89 12 96 15 7 2 15 0 18 -5 8 -12
125 -13 125 -1 0 10 -70 19 -175 20 -58 1 -95 -5 -135 -20z"/>
<path d="M5167 8979 c7 -7 15 -10 18 -7 3 3 -2 9 -12 12 -14 6 -15 5 -6 -5z"/>
<path d="M5243 8940 c14 -11 29 -20 34 -20 10 1 -39 39 -51 40 -5 0 3 -9 17
-20z"/>
<path d="M3830 8925 c-47 -18 -27 -18 30 -1 25 8 36 15 25 15 -11 0 -36 -7
-55 -14z"/>
<path d="M4980 8890 c0 -5 -15 -10 -32 -10 -29 0 -60 -8 -140 -36 -10 -4 -18
-11 -18 -16 0 -5 5 -6 10 -3 12 8 169 36 220 41 19 1 40 3 45 4 6 0 1 7 -9 15
-22 17 -76 20 -76 5z"/>
<path d="M5360 8890 c0 -6 7 -10 15 -10 8 0 15 2 15 4 0 2 -7 6 -15 10 -8 3
-15 1 -15 -4z"/>
<path d="M3925 8880 c-3 -5 -1 -10 4 -10 6 0 11 5 11 10 0 6 -2 10 -4 10 -3 0
-8 -4 -11 -10z"/>
<path d="M3715 8850 c-8 -13 5 -13 25 0 13 8 13 10 -2 10 -9 0 -20 -4 -23 -10z"/>
<path d="M5105 8850 c3 -5 13 -10 21 -10 8 0 14 5 14 10 0 6 -9 10 -21 10 -11
0 -17 -4 -14 -10z"/>
<path d="M5285 8850 c-3 -5 0 -10 8 -10 8 0 20 -7 27 -15 11 -13 10 -14 -3
-10 -8 4 -38 -6 -65 -20 -41 -21 -55 -24 -71 -15 -28 14 -27 17 9 17 34 0 56
15 46 32 -12 18 -94 14 -104 -6 -6 -10 -22 -16 -41 -16 -24 0 -28 -3 -20 -13
8 -10 2 -17 -26 -29 -21 -8 -41 -15 -46 -15 -5 0 -9 -4 -9 -9 0 -10 34 -21 68
-21 12 0 22 -4 22 -10 0 -13 -65 -23 -97 -15 -16 4 -41 9 -58 11 -42 4 -198
-15 -209 -27 -6 -5 -25 -9 -44 -9 -18 0 -42 -5 -53 -11 -12 -6 -28 -8 -37 -4
-13 5 -7 10 23 21 22 7 48 14 59 14 15 0 16 3 6 15 -15 18 -34 19 -60 3 -16
-10 -22 -10 -28 -1 -11 17 -174 20 -232 4 -49 -14 -93 -48 -86 -67 3 -7 -10
-14 -34 -17 -21 -2 -70 -24 -109 -47 -93 -53 -115 -47 -31 10 55 37 61 44 44
51 -10 4 -14 8 -8 8 6 1 28 13 49 27 27 18 46 24 66 20 18 -3 32 0 41 11 12
15 9 15 -27 9 -37 -6 -111 -31 -180 -61 -16 -7 -48 -20 -70 -30 -22 -9 -50
-26 -62 -37 -13 -12 -23 -17 -23 -11 0 6 7 16 15 23 43 36 -11 33 -75 -3 l-35
-21 24 27 24 27 -34 0 c-41 0 -74 -22 -156 -105 -36 -37 -87 -75 -133 -99 -54
-28 -70 -33 -57 -18 10 11 45 34 77 51 51 27 150 120 150 140 0 4 -6 15 -13
25 -12 17 -20 17 -73 8 -35 -6 -61 -6 -65 -1 -8 13 -99 -20 -197 -72 -65 -34
-89 -53 -112 -88 -31 -47 -38 -71 -19 -71 8 0 8 -5 -1 -15 -15 -18 1 -21 31
-5 22 12 24 7 8 -22 -9 -16 -7 -24 12 -44 27 -28 36 -30 61 -7 17 15 18 15 18
-13 0 -33 40 -117 71 -150 11 -12 19 -25 18 -30 -1 -5 4 -21 11 -37 7 -15 11
-29 8 -32 -9 -10 -58 18 -58 32 0 7 -11 18 -24 23 -14 5 -35 23 -47 39 -14 19
-32 31 -45 31 -21 0 -22 3 -13 32 12 44 12 48 -8 41 -18 -7 -82 -75 -100 -107
-21 -36 -41 -118 -47 -193 -6 -75 -19 -123 -28 -107 -20 32 63 360 101 400 9
11 25 31 35 46 17 25 17 27 -1 45 -26 25 -60 27 -97 4 -46 -29 -172 -162 -181
-191 -4 -14 -13 -38 -20 -55 -7 -16 -16 -39 -20 -50 -5 -13 -9 -16 -12 -7 -3
7 -16 25 -29 39 -13 14 -24 31 -24 37 0 7 23 34 50 61 62 61 65 79 5 29 -72
-58 -67 -29 7 41 66 63 98 105 79 105 -5 0 -13 -4 -16 -10 -3 -5 -16 -10 -27
-10 -19 0 -18 3 12 30 18 17 39 30 46 30 33 0 141 151 157 220 6 24 94 116
146 153 51 35 10 26 -78 -19 -106 -53 -151 -101 -151 -164 0 -27 -7 -43 -27
-61 -37 -33 -78 -53 -92 -45 -6 4 -14 1 -17 -8 -3 -8 -19 -18 -35 -21 -16 -4
-29 -12 -29 -20 0 -12 -41 -45 -56 -45 -3 0 -4 9 -1 20 3 12 0 20 -6 20 -19
-1 -57 -37 -57 -54 0 -22 -79 -100 -123 -123 -20 -10 -57 -43 -83 -73 -26 -30
-55 -61 -65 -67 -9 -7 -32 -32 -51 -55 l-33 -43 45 35 c25 19 72 63 105 96 33
34 71 65 85 69 23 7 22 5 -9 -24 -19 -17 -31 -34 -28 -37 8 -8 57 25 101 69
54 54 167 101 126 52 -7 -8 -9 -15 -4 -15 5 0 -2 -11 -16 -25 -33 -32 -41 -43
-68 -88 -26 -45 -27 -57 -7 -57 34 0 7 -27 -35 -35 -17 -3 -101 -95 -95 -104
3 -6 -9 -20 -29 -32 -20 -12 -36 -22 -36 -24 0 -1 9 -5 20 -8 12 -3 35 7 62
27 24 17 55 40 71 49 26 17 27 17 27 -1 0 -10 -24 -47 -53 -82 -30 -36 -52
-71 -49 -78 2 -7 -14 -30 -36 -51 -54 -52 -78 -89 -65 -102 14 -14 40 0 104
57 28 25 53 43 56 40 11 -11 -58 -84 -101 -107 -58 -31 -80 -80 -66 -153 6
-27 15 -55 21 -62 6 -7 11 -30 12 -49 1 -44 -40 -85 -86 -85 -29 0 -29 0 -13
-25 9 -13 16 -40 16 -58 0 -19 7 -40 15 -47 24 -20 18 -55 -10 -68 -31 -14
-32 -41 -4 -98 17 -37 19 -48 9 -85 -10 -36 -9 -47 7 -76 15 -28 16 -35 4 -42
-12 -8 -11 -17 6 -58 12 -26 29 -75 38 -108 25 -92 41 -148 50 -167 11 -26 -5
-22 -43 11 -45 38 -170 99 -219 107 -29 4 -50 1 -79 -14 -80 -41 -106 -97
-108 -232 0 -53 5 -111 12 -130 12 -35 39 -150 47 -200 2 -14 26 -72 53 -130
27 -58 52 -118 56 -133 7 -28 89 -184 107 -202 6 -6 6 2 -1 19 -6 16 -8 31 -5
34 5 5 11 -3 76 -87 43 -55 69 -73 89 -61 12 7 13 13 3 27 -6 10 -17 17 -23
15 -17 -4 -50 27 -50 46 0 8 -18 31 -40 52 -59 54 -100 110 -100 136 0 12 -18
60 -40 105 -22 46 -40 94 -40 108 0 15 -10 46 -21 71 -39 85 -76 350 -49 350
6 0 10 -6 10 -14 0 -8 4 -16 8 -18 5 -1 16 -45 25 -97 16 -89 29 -121 48 -121
5 0 9 10 9 23 0 21 18 60 21 45 2 -11 6 -27 9 -35 1 -5 2 -31 0 -60 -2 -65 23
-153 55 -191 14 -17 28 -45 31 -64 4 -18 15 -47 26 -65 10 -17 17 -36 16 -41
-2 -6 15 -34 37 -64 30 -40 41 -65 45 -103 5 -46 7 -50 35 -55 20 -4 31 -12
36 -30 11 -41 10 -44 -20 -62 -24 -13 -33 -14 -48 -4 -10 7 -29 16 -43 19 -15
4 -33 21 -44 42 -21 39 -33 42 -17 4 6 -13 15 -44 21 -68 11 -41 44 -82 97
-118 29 -19 88 -24 141 -11 42 10 84 0 103 -25 3 -5 9 5 12 21 5 24 10 29 27
25 22 -6 33 -37 49 -148 13 -88 16 -100 30 -155 31 -116 145 -360 186 -399 14
-13 38 -45 52 -70 14 -25 31 -50 37 -56 22 -20 63 -81 96 -140 38 -69 69 -101
131 -133 57 -30 103 -60 142 -95 l32 -28 -40 6 c-22 4 -48 14 -57 22 -11 10
-26 13 -43 9 -14 -4 -25 -2 -25 4 0 5 -5 10 -11 10 -5 0 -7 -5 -4 -10 3 -6 -1
-13 -9 -16 -18 -7 -22 -39 -6 -49 6 -4 8 -10 5 -15 -3 -5 0 -20 6 -32 7 -13
16 -41 20 -63 19 -113 39 -193 53 -220 9 -16 15 -50 14 -76 0 -25 5 -55 11
-67 15 -29 14 -52 -3 -52 -17 0 -12 -54 10 -109 19 -46 18 -61 -5 -61 -14 0
-18 5 -14 20 3 11 1 20 -5 20 -12 0 -5 -171 9 -214 5 -16 8 -50 8 -75 -1 -46
-1 -46 -10 14 -5 33 -13 70 -19 83 -5 13 -10 46 -10 75 0 29 -5 59 -10 67 -28
44 24 -404 64 -545 l14 -50 1 38 c1 44 21 41 21 -3 0 -16 5 -32 12 -36 7 -5 8
-3 3 6 -5 9 -4 11 3 6 7 -4 10 -17 7 -29 -10 -39 -11 -181 -3 -215 6 -19 5
-39 -1 -50 -8 -14 -13 -10 -31 31 -12 26 -30 80 -40 120 -11 41 -24 84 -29 98
l-10 24 -1 -25 c0 -14 -5 -32 -10 -40 -7 -11 -10 -8 -10 15 0 17 -5 36 -11 42
-11 11 -14 94 -8 168 2 17 0 48 -4 70 -3 22 -9 71 -13 108 -4 37 -11 70 -15
73 -5 3 -9 32 -9 65 0 32 -4 59 -9 59 -20 0 -87 -162 -132 -318 -24 -85 -31
-134 -36 -237 -8 -184 4 -205 142 -255 95 -34 321 -214 308 -246 -8 -21 31
-18 122 12 101 32 139 54 271 151 58 43 119 87 135 98 15 11 61 74 100 140
127 211 190 279 361 384 60 37 100 70 133 112 26 32 80 87 119 121 39 34 81
74 94 88 61 66 113 131 152 190 24 36 76 101 114 146 39 45 112 129 161 188
50 59 116 137 147 172 78 88 150 186 143 193 -3 3 -9 0 -13 -6 -11 -18 -92
-112 -158 -182 -33 -36 -82 -92 -109 -124 -49 -59 -122 -123 -131 -115 -2 3
12 21 31 41 39 41 41 44 20 44 -8 0 -12 -4 -9 -9 8 -12 -10 -10 -26 5 -12 10
-12 9 -2 -4 10 -13 7 -20 -13 -39 -20 -18 -28 -21 -37 -12 -18 18 -28 15 -28
-9 0 -11 -4 -17 -10 -14 -5 3 -15 -3 -22 -15 -7 -11 -17 -20 -23 -20 -5 0 -37
-28 -70 -61 -89 -89 -330 -280 -410 -324 -38 -21 -71 -42 -73 -47 -2 -4 -13
-8 -24 -8 -10 0 -34 -11 -52 -25 -18 -14 -48 -28 -67 -31 -45 -9 -145 -56
-209 -99 -48 -33 -237 -105 -273 -105 -8 0 -17 -6 -20 -12 -3 -9 -12 -6 -29
10 -13 12 -33 22 -44 22 -11 0 -29 16 -43 35 l-24 35 27 23 26 22 -26 28 c-16
17 -20 27 -11 27 23 0 47 34 41 58 -5 16 0 24 21 34 21 9 25 16 20 36 -8 33
11 52 51 52 19 0 34 1 34 3 0 1 -9 20 -20 42 -11 22 -20 45 -20 51 0 7 9 16
20 19 24 7 26 37 5 55 -20 17 -19 40 3 41 30 2 47 -2 64 -18 10 -9 36 -15 65
-14 26 0 70 -7 96 -15 32 -11 61 -14 85 -9 20 4 52 9 71 11 62 5 217 45 253
64 10 5 24 7 33 4 8 -4 17 0 21 9 3 8 13 13 24 10 10 -3 21 0 24 6 4 6 31 11
59 12 41 0 47 2 30 9 -26 11 -30 35 -8 44 24 9 17 22 -17 33 l-33 11 33 13
c17 7 32 18 32 24 0 13 47 49 75 59 23 7 85 63 85 76 0 5 12 20 26 33 25 23
25 24 5 30 -11 2 -28 -1 -38 -9 -10 -7 -27 -14 -38 -14 -16 0 -17 -2 -5 -10
25 -16 5 -21 -26 -6 -16 8 -54 17 -85 20 -44 6 -58 4 -69 -9 -9 -11 -22 -14
-41 -10 -15 3 -30 1 -34 -4 -3 -6 -22 -11 -41 -11 -19 0 -34 -4 -34 -10 0 -16
-108 -11 -163 8 -28 9 -64 31 -81 48 -27 28 -38 53 -62 146 -3 9 -13 19 -22
21 -15 4 -15 5 -1 6 10 1 27 25 43 61 15 33 36 65 47 71 12 6 19 12 17 15 -3
2 11 22 31 43 20 23 38 35 42 29 4 -7 9 -7 13 1 4 6 4 16 1 21 -4 6 8 10 29
10 19 0 38 5 41 10 3 6 14 10 25 10 10 0 20 6 23 14 6 16 -50 28 -93 20 -15
-4 -30 -1 -34 4 -7 12 -46 4 -46 -10 0 -7 -5 -6 -13 1 -10 8 -26 3 -63 -20
-27 -18 -51 -35 -54 -40 -11 -17 -102 -50 -118 -44 -9 4 -34 8 -54 10 -48 4
-55 9 -63 45 -4 20 -13 30 -25 30 -10 0 -20 9 -23 20 -3 13 -10 18 -21 14 -11
-4 -16 0 -16 13 0 30 -11 35 -30 13 -15 -17 -19 -18 -44 -5 -25 13 -27 13 -37
-12 -7 -19 -15 -24 -29 -20 -24 6 -53 -19 -46 -39 3 -8 -1 -14 -9 -14 -8 0
-14 -3 -14 -7 4 -24 -4 -33 -27 -33 -19 0 -25 4 -20 15 3 10 -1 18 -12 21 -9
3 -25 10 -35 15 -10 5 -22 7 -26 4 -5 -3 -14 9 -20 25 -5 17 -15 30 -20 30 -6
0 -11 7 -11 15 0 7 -6 18 -14 22 -22 12 -31 73 -11 73 8 0 15 3 15 6 0 19 -33
114 -39 114 -5 0 -6 10 -4 23 3 14 -2 29 -11 36 -9 8 -16 22 -16 32 0 17 -7
37 -37 107 -8 18 -15 43 -15 55 0 12 -7 45 -14 72 -8 28 -16 84 -19 126 -3 42
-12 96 -20 119 -8 23 -15 51 -15 61 0 11 -7 19 -15 19 -8 0 -15 7 -15 15 0 9
-7 18 -15 21 -8 4 -15 12 -15 19 0 7 -9 24 -21 39 -12 15 -19 35 -16 46 3 11
-1 24 -9 31 -8 6 -14 18 -14 26 0 20 -39 90 -67 121 -32 35 -42 102 -36 244 6
126 6 128 -21 162 -14 19 -29 50 -33 68 -3 18 -12 42 -19 54 -8 11 -15 35 -17
53 -2 18 -10 37 -18 42 -10 6 -11 11 -3 19 12 12 43 3 45 -14 1 -6 4 2 8 18
l6 30 86 3 c84 3 87 2 88 -19 1 -63 15 -87 51 -88 11 0 16 -9 15 -27 0 -23 8
-32 46 -51 25 -12 69 -25 98 -29 55 -6 91 -31 91 -63 0 -10 31 -29 88 -55 69
-31 104 -40 170 -46 45 -4 99 -3 120 2 22 5 41 4 46 -1 13 -13 43 -13 48 0 5
17 98 21 104 5 3 -7 23 -17 45 -20 23 -4 45 -15 52 -26 6 -10 18 -19 25 -19
22 0 39 -23 34 -47 -2 -12 -27 -40 -56 -61 -28 -22 -64 -57 -79 -78 -15 -22
-46 -63 -68 -93 -40 -54 -47 -71 -29 -71 6 0 10 -6 10 -12 0 -7 16 -27 36 -44
25 -23 35 -39 32 -55 -3 -23 -54 -66 -113 -94 -16 -8 -48 -27 -70 -44 -22 -16
-55 -32 -73 -36 -27 -5 -33 -3 -40 14 -4 11 -12 17 -18 13 -17 -11 -81 -127
-89 -160 -10 -46 -9 -111 3 -125 5 -6 13 -32 16 -57 8 -51 42 -96 80 -106 21
-5 26 -2 32 22 5 18 3 29 -4 32 -17 5 -15 22 3 22 8 0 15 -7 15 -15 0 -8 7
-15 16 -15 8 0 35 -11 60 -25 25 -14 51 -25 60 -25 8 0 17 -7 20 -15 4 -8 12
-15 20 -15 8 0 23 -9 34 -20 16 -16 20 -17 20 -4 0 9 6 14 13 11 7 -2 12 -19
11 -40 -1 -25 3 -37 12 -37 8 0 23 -9 34 -20 11 -11 33 -20 49 -20 16 0 31 -6
34 -12 2 -7 8 -10 12 -6 4 4 2 14 -5 23 -10 13 -9 15 10 15 27 0 80 -36 80
-56 0 -8 5 -14 10 -14 6 0 19 -9 30 -20 11 -11 45 -27 74 -34 30 -8 66 -22 80
-31 46 -30 136 -5 205 57 39 36 52 70 31 83 -5 3 -10 17 -10 31 0 23 -2 24
-20 11 -11 -8 -34 -13 -51 -11 -20 3 -32 -1 -36 -12 -5 -13 -10 -11 -31 11
-18 20 -21 30 -13 38 16 16 14 41 -6 76 -18 31 -43 42 -43 19 0 -9 -3 -9 -9 1
-13 20 -39 6 -52 -26 -8 -21 -12 -24 -19 -14 -4 8 -6 20 -3 28 3 8 -2 13 -15
13 -21 0 -35 30 -23 49 4 6 21 11 37 10 16 -1 41 2 57 6 24 6 27 5 27 -19 0
-14 5 -26 10 -26 6 0 10 13 10 29 0 30 14 41 53 41 16 0 18 3 9 9 -9 5 8 10
44 14 36 4 63 2 71 -5 10 -8 25 -6 56 4 45 17 143 17 172 1 12 -7 28 -5 56 8
21 11 43 19 48 19 6 0 25 9 43 20 40 24 48 25 48 4 0 -10 6 -14 14 -11 7 3 34
8 58 12 35 5 46 4 51 -8 3 -8 24 -18 46 -22 23 -4 39 -11 35 -16 -10 -17 24
-9 52 13 59 45 93 121 93 203 0 88 -22 122 -189 295 -85 89 -157 164 -160 168
-3 4 -32 33 -66 64 -59 55 -63 56 -115 56 -33 0 -68 6 -88 16 l-33 18 17 -30
c17 -28 88 -79 105 -75 20 6 60 -74 60 -121 0 -42 -14 -50 -87 -48 -66 2 -72
0 -116 -34 -26 -20 -47 -40 -47 -45 0 -10 -82 -59 -99 -59 -8 0 -11 7 -7 15 3
8 1 15 -4 15 -6 0 -10 9 -10 20 0 12 -16 28 -47 46 -60 34 -113 83 -113 104 0
9 -4 20 -9 26 -5 5 -14 33 -20 63 -11 52 -10 56 14 81 25 27 30 45 40 150 3
30 8 69 10 86 4 22 -3 48 -21 84 -34 68 -42 148 -18 184 13 21 14 32 7 49 -6
13 -9 62 -7 110 4 68 1 96 -12 123 -19 40 -54 68 -67 55 -20 -20 -111 23 -165
77 -12 12 -28 22 -36 22 -7 0 -33 9 -58 20 -34 15 -68 19 -158 20 -63 0 -141
-2 -172 -6 -37 -4 -58 -3 -58 3 0 12 -77 43 -106 43 -29 0 -130 -27 -204 -55
-36 -14 -81 -26 -100 -28 -19 -2 -44 -7 -54 -12 -13 -6 -21 -5 -24 3 -2 7 -11
12 -20 12 -10 0 -13 3 -7 8 10 7 24 27 51 75 8 16 16 46 16 68 0 21 5 39 10
39 9 0 8 20 -7 80 -2 8 -16 40 -31 70 -49 101 -56 128 -38 161 11 23 14 52 10
130 -3 55 -8 104 -11 110 -12 18 -8 119 5 134 7 8 20 15 30 15 22 0 35 16 44
54 6 23 11 27 28 23 15 -4 29 2 44 18 20 22 28 24 73 18 44 -5 51 -3 51 11 0
13 5 16 20 11 14 -4 20 -2 20 8 0 8 10 15 23 16 12 0 42 3 67 6 25 3 79 7 120
9 42 1 86 9 99 15 19 10 28 11 46 1 18 -10 31 -10 56 -1 44 15 101 14 146 -3
21 -8 67 -17 103 -20 36 -2 88 -15 115 -27 35 -16 72 -23 120 -25 39 0 77 -4
86 -8 11 -5 19 -1 22 8 11 29 40 17 89 -36 39 -42 55 -53 82 -53 24 -1 33 2
29 11 -2 7 -11 10 -19 7 -19 -7 -49 20 -65 60 -7 18 -17 35 -23 39 -6 4 -7 10
-3 14 4 4 18 -3 32 -16 14 -13 25 -18 25 -12 0 13 28 16 54 6 9 -3 16 -12 16
-19 0 -7 11 -16 24 -19 14 -3 37 -17 53 -30 16 -14 43 -28 59 -31 l29 -7 -26
24 c-29 26 -79 93 -79 105 0 4 7 -3 16 -15 9 -13 26 -22 40 -22 14 0 34 -5 45
-11 37 -20 97 -14 119 12 19 22 22 22 32 8 9 -13 17 -15 40 -7 15 6 28 14 28
18 0 4 8 6 19 3 10 -3 22 0 25 6 4 6 17 11 29 11 12 1 40 9 62 20 22 11 45 19
51 20 26 0 104 42 104 55 0 7 10 17 23 21 26 8 188 8 214 0 23 -8 166 -198
187 -250 9 -21 16 -53 16 -70 0 -18 9 -67 20 -109 12 -45 20 -104 19 -142 -1
-46 3 -71 13 -83 25 -28 30 -74 38 -397 8 -306 19 -418 44 -443 11 -11 14 1
20 67 7 91 17 114 66 159 l35 32 -35 -12 c-19 -6 -47 -20 -62 -30 -28 -19 -28
-19 -28 2 0 30 27 78 51 91 17 9 19 13 8 20 -10 6 -20 1 -35 -17 -27 -32 -43
-15 -20 21 12 19 16 51 16 138 0 62 4 117 9 123 5 5 11 36 14 69 4 33 10 78
14 100 5 24 4 56 -2 79 -8 30 -7 40 3 43 9 4 12 36 12 118 0 90 -4 125 -20
165 -21 54 -18 63 10 28 18 -23 18 -23 8 22 -6 25 -16 70 -24 101 -8 30 -14
84 -14 120 0 66 -11 101 -25 79 -4 -6 -4 -36 0 -67 7 -61 -7 -67 -24 -10 -5
18 -12 40 -16 50 -5 12 -2 17 9 17 22 0 30 40 23 129 -7 99 -31 174 -67 214
l-29 32 19 -63 c24 -76 26 -109 5 -72 -8 14 -17 45 -21 70 -8 51 -51 150 -66
150 -6 0 -7 -7 -4 -16 3 -9 9 -28 12 -42 4 -15 11 -32 15 -38 10 -13 39 -104
33 -104 -2 0 -13 21 -25 48 -50 112 -82 174 -102 199 -42 52 -81 118 -87 148
-3 18 -13 31 -24 33 -11 2 -16 0 -12 -6 3 -6 2 -13 -3 -16 -5 -4 -22 10 -37
29 -29 39 -62 52 -91 37 -27 -15 -42 -2 -32 26 5 12 13 22 19 22 5 0 10 5 10
11 0 8 -12 10 -34 6 -19 -3 -39 0 -46 6 -9 9 -10 5 -4 -18 7 -27 6 -29 -9 -16
-11 8 -28 11 -48 7 -32 -6 -69 7 -69 25 0 5 9 19 19 30 21 23 41 18 41 -9 0
-11 3 -13 11 -5 7 7 5 20 -8 43 -15 27 -31 37 -93 57 -41 13 -79 28 -84 34
-13 12 -33 12 -41 -1z m95 -69 c0 -5 15 -5 35 -1 37 8 53 -1 32 -18 -24 -19
-53 -21 -122 -8 -68 13 -71 21 -10 29 55 7 65 7 65 -2z m-255 -11 c3 -5 -1
-10 -10 -10 -9 0 -13 5 -10 10 3 6 8 10 10 10 2 0 7 -4 10 -10z m-567 -77
c-10 -2 -28 -2 -40 0 -13 2 -5 4 17 4 22 1 32 -1 23 -4z m-33 -38 c-16 -8 -40
-14 -51 -15 -12 0 -33 -9 -47 -20 -14 -11 -30 -20 -36 -20 -23 0 -10 -20 17
-25 15 -3 90 -25 167 -50 77 -24 149 -46 160 -47 11 -1 54 5 95 14 41 9 143
19 225 22 83 4 164 9 182 12 29 6 31 8 17 22 -14 13 -25 14 -87 3 -126 -22
-137 -23 -154 -16 -17 6 -17 7 0 16 9 6 26 7 37 4 29 -9 60 4 60 25 0 21 40
33 95 28 24 -2 39 3 45 12 6 9 24 14 50 14 22 -1 40 2 40 7 0 13 33 10 53 -5
22 -17 22 -22 -3 -29 -11 -3 -20 -1 -20 4 0 4 -7 6 -16 2 -12 -4 -13 -8 -3
-14 8 -5 3 -8 -15 -11 -37 -4 -34 -22 6 -29 33 -6 26 -14 -16 -21 -11 -2 -18
-7 -15 -13 6 -15 58 -9 77 8 22 19 82 32 82 18 0 -5 -17 -13 -37 -17 -36 -7
-36 -7 -13 -17 l25 -10 -25 -6 c-36 -10 -7 -25 33 -17 41 7 70 -8 36 -19 -23
-8 -23 -8 -4 -17 13 -5 -2 -7 -41 -3 -47 3 -65 1 -74 -10 -7 -9 -30 -15 -54
-15 -56 -1 -31 -13 69 -35 44 -10 90 -22 102 -27 43 -20 196 16 218 52 8 13
35 13 35 0 0 -5 -4 -10 -10 -10 -5 0 -32 -14 -61 -30 -28 -17 -68 -34 -88 -38
-21 -5 -37 -15 -39 -24 -3 -14 3 -16 32 -11 27 4 37 2 42 -11 8 -22 25 -20 80
9 53 28 62 27 37 -4 -14 -17 -32 -22 -87 -26 -38 -2 -83 -9 -100 -14 -61 -18
-163 -30 -301 -34 -100 -4 -133 -2 -115 5 14 6 77 11 141 13 63 1 125 6 137 9
38 12 24 33 -34 51 -47 15 -77 16 -197 10 -120 -6 -153 -4 -212 11 -38 10 -62
20 -52 22 34 7 11 25 -54 44 -35 9 -71 26 -80 37 -9 11 -29 23 -45 26 -43 10
-237 77 -250 87 -6 4 -33 11 -60 15 -27 3 -55 13 -63 21 -12 11 -30 13 -79 9
-57 -6 -63 -5 -51 9 22 27 119 64 168 65 25 1 57 5 71 9 14 4 39 8 55 8 l30 0
-30 -13z m918 -1 c9 -4 17 -10 17 -15 0 -13 -34 -11 -48 3 -16 16 -15 31 1 24
6 -3 20 -9 30 -12z m-1923 -94 c-30 -38 -49 -53 -34 -27 21 36 47 67 56 67 5
0 -5 -18 -22 -40z m1568 33 c-10 -2 -26 -2 -35 0 -10 3 -2 5 17 5 19 0 27 -2
18 -5z m437 -43 c-3 -5 -12 -7 -20 -3 -21 7 -19 13 6 13 11 0 18 -4 14 -10z
m-1185 -8 c0 -28 -76 -44 -109 -23 -20 13 19 24 53 15 16 -4 26 -2 26 5 0 6 7
11 15 11 8 0 15 -4 15 -8z m-965 -40 c-10 -10 -16 -12 -13 -7 3 6 8 19 13 30
5 14 9 16 12 7 3 -8 -3 -21 -12 -30z m791 13 c-19 -15 -46 -20 -46 -10 0 6 40
24 55 24 6 0 1 -6 -9 -14z m1654 -14 c0 -5 -7 -14 -15 -21 -13 -10 -15 -9 -15
9 0 12 6 21 15 21 8 0 15 -4 15 -9z m-2372 -46 c-12 -24 -23 -43 -26 -41 -4 5
36 86 43 86 3 0 -5 -20 -17 -45z m2127 5 c-3 -5 -15 -10 -26 -10 -10 0 -19 5
-19 10 0 6 12 10 26 10 14 0 23 -4 19 -10z m-2585 -28 c0 -8 -43 -32 -55 -32
-15 0 -1 22 18 30 29 11 37 12 37 2z m-157 -91 c-3 -11 -14 -22 -26 -25 -27
-7 -36 1 -11 11 10 3 23 12 27 20 11 19 16 16 10 -6z m1648 -17 c-57 -25 -82
-31 -65 -14 12 12 83 39 104 39 8 0 -9 -11 -39 -25z m194 -24 c-3 -5 -14 -10
-23 -10 -15 0 -15 2 -2 10 20 13 33 13 25 0z m145 -10 c0 -5 -3 -10 -7 -10 -5
0 -29 -7 -55 -15 -27 -8 -48 -10 -48 -5 0 5 21 16 48 24 58 18 62 18 62 6z
m-1627 -17 c-3 -10 -15 -28 -25 -39 -17 -19 -24 -37 -27 -66 -1 -5 -5 -8 -10
-8 -4 0 -6 11 -3 25 3 19 0 25 -14 25 -14 0 -7 10 26 40 50 43 62 49 53 23z
m2537 -37 c0 -3 -4 -8 -10 -11 -5 -3 -10 -1 -10 4 0 6 5 11 10 11 6 0 10 -2
10 -4z m61 -65 c-6 -11 -8 -26 -5 -34 7 -20 -77 -90 -91 -75 -7 7 -6 12 3 15
24 9 62 57 80 101 9 23 18 36 20 28 2 -8 -2 -24 -7 -35z m-2711 24 c-7 -8 -17
-15 -22 -15 -6 0 -5 7 2 15 7 8 17 15 22 15 6 0 5 -7 -2 -15z m2593 -75 c-6
-22 -31 -24 -168 -11 l-70 7 82 8 c44 4 91 5 102 1 11 -3 29 -2 38 4 10 6 19
11 20 11 0 0 -1 -9 -4 -20z m-2898 -19 c-7 -23 -25 -29 -25 -8 0 14 21 39 28
33 2 -3 1 -14 -3 -25z m3312 -13 c-3 -8 -6 -5 -6 6 -1 11 2 17 5 13 3 -3 4
-12 1 -19z m-3261 -24 c-30 -21 -44 -16 -17 7 13 11 27 17 30 13 3 -3 -3 -12
-13 -20z m3158 17 c4 -5 -3 -7 -14 -4 -23 6 -26 13 -6 13 8 0 17 -4 20 -9z
m60 -57 c9 -24 7 -28 -9 -14 -17 14 -20 30 -6 30 5 0 12 -7 15 -16z m-49 -44
c8 -13 -5 -13 -25 0 -13 8 -13 10 2 10 9 0 20 -4 23 -10z m-3307 -160 c-7 -11
-17 -20 -22 -20 -5 0 -1 9 9 20 10 11 20 20 22 20 2 0 -2 -9 -9 -20z m2265
-20 c10 0 15 -4 12 -10 -9 -15 -39 -12 -61 6 -18 15 -18 15 6 10 14 -3 33 -6
43 -6z m-2302 -213 c-8 -23 -41 -37 -41 -18 0 16 32 51 41 45 5 -2 4 -15 0
-27z m-71 -118 c0 -58 -19 -64 -34 -9 -8 27 -7 35 9 46 10 8 20 14 22 14 2 0
3 -23 3 -51z m7 -161 c-3 -8 -6 -5 -6 6 -1 11 2 17 5 13 3 -3 4 -12 1 -19z
m-27 -143 c0 -8 -6 -15 -14 -15 -20 0 -29 17 -14 23 22 9 28 7 28 -8z m256
-557 c-22 -103 -36 -200 -37 -248 0 -50 -26 -148 -28 -107 -1 9 -5 17 -10 17
-13 0 -21 -100 -11 -150 14 -72 12 -130 -4 -130 -20 0 -30 76 -22 164 16 164
26 235 45 306 12 41 21 85 21 97 0 12 5 25 10 28 6 3 10 17 10 31 0 15 6 24
16 24 13 0 15 -6 10 -32z m1185 -60 c84 -17 55 -34 -72 -42 -118 -8 -167 -17
-260 -51 -48 -17 -83 -23 -132 -21 -37 1 -70 5 -73 9 -4 4 1 7 11 7 10 0 39
12 64 27 56 33 168 72 236 83 57 9 145 5 226 -12z m-1601 -105 c40 -20 200
-194 226 -245 26 -52 24 -53 -41 -21 -24 12 -39 13 -68 5 -35 -10 -39 -9 -67
21 -18 19 -33 28 -38 22 -13 -18 -29 -14 -27 5 1 11 4 23 8 26 13 14 6 49 -19
99 -30 58 -44 101 -37 109 5 5 25 -1 63 -21z m1749 -36 c63 -31 89 -57 57 -57
-9 0 -23 -11 -31 -24 -17 -25 -86 -59 -145 -71 -60 -11 -70 -16 -70 -31 0 -8
5 -14 10 -14 6 0 10 6 10 14 0 17 188 32 204 16 5 -5 18 -10 27 -10 10 0 21
-5 25 -12 5 -8 -5 -9 -34 -5 -32 4 -48 1 -66 -14 -13 -10 -30 -19 -38 -19 -7
0 -28 -9 -46 -20 -18 -11 -38 -20 -44 -20 -6 0 -16 -8 -23 -17 -9 -12 -17 -14
-26 -7 -8 5 -35 9 -61 9 -33 -1 -48 3 -48 12 0 7 -11 13 -25 13 -14 0 -25 5
-25 10 0 6 -8 10 -17 10 -17 0 -73 47 -73 62 0 13 27 9 40 -7 9 -11 16 -11 29
-3 13 8 25 6 49 -6 40 -20 54 -20 50 1 -2 12 7 19 31 24 20 4 51 24 75 48 39
39 41 44 41 102 l-1 61 31 -6 c16 -4 59 -21 94 -39z m115 17 c17 -6 22 -24 8
-24 -5 0 -17 7 -28 15 -19 15 -8 20 20 9z m-1634 -125 c0 -23 -22 -4 -60 54
l-42 62 51 -54 c28 -29 51 -57 51 -62z m1340 92 c0 -11 -26 -22 -34 -14 -12
12 -5 23 14 23 11 0 20 -4 20 -9z m-210 -39 c0 -9 9 -34 20 -55 17 -32 18 -37
4 -37 -18 0 -84 51 -84 64 0 15 32 46 47 46 7 0 13 -8 13 -18z m560 -97 c-13
-16 -60 -21 -60 -6 0 12 18 19 49 20 20 1 21 -1 11 -14z m-1664 -209 c3 -13 3
-57 0 -98 -3 -40 -6 -97 -5 -126 0 -64 -7 -88 -27 -96 -20 -8 -54 15 -54 37 0
10 -7 20 -16 24 -14 5 -15 15 -9 62 4 31 9 74 12 96 2 22 9 42 14 43 5 2 9 12
9 22 0 17 44 59 62 60 4 0 10 -11 14 -24z m-154 -91 c-8 -17 -17 -22 -31 -18
-17 4 -21 13 -21 43 0 46 18 55 44 23 15 -20 16 -29 8 -48z m1585 49 c-3 -3
-12 -4 -19 -1 -8 3 -5 6 6 6 11 1 17 -2 13 -5z m-1391 -139 c-4 -17 -2 -27 6
-30 10 -4 12 -25 10 -81 -3 -55 0 -79 10 -92 27 -32 39 -103 40 -228 0 -125
-4 -146 -22 -128 -17 17 -58 194 -65 281 -8 98 4 303 18 303 5 0 6 -11 3 -25z
m-107 -164 c16 -10 26 -90 13 -109 -12 -18 -40 -4 -57 29 -16 29 -20 71 -8 82
9 10 35 8 52 -2z m1856 -21 c24 -27 31 -112 11 -143 l-17 -25 -24 24 c-13 13
-33 24 -43 24 -11 0 -23 7 -26 16 -11 29 -6 102 8 117 18 18 70 11 91 -13z
m843 -221 c42 -35 85 -69 96 -74 12 -6 30 -27 41 -48 13 -23 26 -35 35 -32 10
2 23 -12 38 -45 27 -58 27 -117 -1 -134 -15 -9 -25 -3 -63 37 -25 26 -47 47
-50 47 -2 0 -4 -8 -5 -17 0 -10 -17 -32 -39 -49 -53 -43 -168 -63 -249 -45
-113 27 -181 26 -249 -3 -79 -33 -158 -35 -213 -4 -36 20 -42 21 -125 9 -47
-7 -89 -10 -91 -7 -3 3 -22 -3 -42 -13 -20 -10 -70 -21 -112 -25 -65 -6 -79
-4 -99 12 l-23 18 29 11 c16 7 50 14 77 18 26 3 47 10 47 14 0 5 23 6 50 3 45
-4 50 -3 50 16 0 12 13 29 34 41 18 12 52 50 74 85 43 66 59 78 102 81 28 2
60 -20 60 -42 0 -7 8 -13 19 -13 27 0 44 -26 37 -54 -8 -31 7 -71 29 -80 54
-20 97 32 94 117 -2 63 13 95 51 108 15 6 30 19 33 29 5 21 75 60 107 60 11 0
30 9 42 20 12 11 30 20 40 20 11 0 17 4 13 9 -9 15 27 18 58 6 16 -7 63 -41
105 -76z m-908 73 c0 -13 -12 -22 -22 -16 -10 6 -1 24 13 24 5 0 9 -4 9 -8z
m-1850 -187 c24 -26 23 -40 -2 -30 -17 7 -43 55 -30 55 5 0 19 -11 32 -25z
m98 -14 c3 -8 -1 -12 -9 -9 -7 2 -15 10 -17 17 -3 8 1 12 9 9 7 -2 15 -10 17
-17z m1612 -543 c0 -16 -3 -19 -11 -11 -6 6 -8 16 -5 22 11 17 16 13 16 -11z
m347 -19 c6 -21 6 -21 24 2 17 23 19 23 36 6 22 -21 7 -52 -24 -52 -12 -1 -28
-6 -36 -14 -18 -15 -69 -11 -74 5 -2 7 4 20 14 30 10 9 19 21 19 26 3 17 4 18
20 18 9 0 18 -10 21 -21z m193 -1034 c-7 -8 -17 -15 -22 -15 -6 0 -5 7 2 15 7
8 17 15 22 15 6 0 5 -7 -2 -15z m-1200 -265 c0 -5 -4 -10 -10 -10 -5 0 -10 5
-10 10 0 6 5 10 10 10 6 0 10 -4 10 -10z m-123 -872 c-3 -8 -6 -5 -6 6 -1 11
2 17 5 13 3 -3 4 -12 1 -19z"/>
<path d="M5143 8573 c9 -2 23 -2 30 0 6 3 -1 5 -18 5 -16 0 -22 -2 -12 -5z"/>
<path d="M5180 8500 c20 -13 50 -13 50 0 0 6 -15 10 -32 10 -25 0 -29 -3 -18
-10z"/>
<path d="M4836 8461 c-35 -14 1 -23 100 -26 52 -1 94 1 94 5 0 16 -162 34
-194 21z"/>
<path d="M5305 8450 c-3 -5 1 -10 10 -10 9 0 13 5 10 10 -3 6 -8 10 -10 10 -2
0 -7 -4 -10 -10z"/>
<path d="M5450 8280 c0 -5 4 -10 9 -10 6 0 13 5 16 10 3 6 -1 10 -9 10 -9 0
-16 -4 -16 -10z"/>
<path d="M3405 8795 c-25 -12 -26 -14 -5 -9 14 4 29 10 35 15 12 12 5 11 -30
-6z"/>
<path d="M4993 8783 c9 -2 23 -2 30 0 6 3 -1 5 -18 5 -16 0 -22 -2 -12 -5z"/>
<path d="M3988 8713 c7 -3 16 -2 19 1 4 3 -2 6 -13 5 -11 0 -14 -3 -6 -6z"/>
<path d="M3040 8686 c0 -13 -3 -38 -6 -55 -5 -24 -3 -31 10 -31 19 0 21 -30 4
-50 -11 -12 -10 -12 4 -1 10 7 23 31 28 53 6 21 14 46 17 54 3 8 -1 14 -10 14
-8 0 -17 9 -20 20 -7 28 -27 25 -27 -4z"/>
<path d="M4214 8680 c-36 -14 -39 -31 -4 -19 16 6 33 15 36 20 6 11 -4 11 -32
-1z"/>
<path d="M3445 8670 c-3 -5 -14 -10 -24 -10 -9 0 -26 -7 -37 -16 -18 -14 -18
-15 6 -8 30 8 90 44 73 44 -6 0 -15 -4 -18 -10z"/>
<path d="M3273 8637 c-42 -32 -111 -115 -166 -199 -15 -24 -40 -58 -55 -77
-26 -33 -26 -34 -4 -29 25 7 29 -4 7 -22 -9 -7 -30 -32 -48 -54 l-31 -41 49
44 c176 156 203 187 218 251 4 15 25 46 47 70 22 24 40 45 40 47 0 10 -28 -1
-59 -24 l-36 -26 34 36 c19 21 41 37 47 37 7 0 16 5 19 10 13 20 -21 8 -62
-23z"/>
<path d="M3190 8599 c0 -5 5 -7 10 -4 6 3 10 8 10 11 0 2 -4 4 -10 4 -5 0 -10
-5 -10 -11z"/>
<path d="M2907 8486 c-4 -10 -1 -13 9 -9 7 3 14 9 14 14 0 14 -17 10 -23 -5z"/>
<path d="M2678 8334 c-22 -20 -32 -34 -23 -34 20 0 81 55 69 63 -5 3 -26 -10
-46 -29z"/>
<path d="M2795 8240 c-3 -5 -2 -10 4 -10 5 0 13 5 16 10 3 6 2 10 -4 10 -5 0
-13 -4 -16 -10z"/>
<path d="M2489 8183 l-24 -28 28 24 c25 23 32 31 24 31 -2 0 -14 -12 -28 -27z"/>
<path d="M2680 8128 c-25 -12 -40 -23 -33 -25 13 -5 68 22 78 37 8 12 10 13
-45 -12z"/>
<path d="M2917 8093 c-4 -3 -7 -11 -7 -17 0 -6 5 -5 12 2 6 6 9 14 7 17 -3 3
-9 2 -12 -2z"/>
<path d="M2468 7944 c-15 -8 -33 -24 -39 -37 -12 -22 -12 -22 14 1 14 13 42
30 64 37 31 11 33 14 13 14 -14 0 -37 -6 -52 -15z"/>
<path d="M2499 7843 l-24 -28 30 25 c17 14 32 26 34 28 2 1 0 2 -6 2 -5 0 -20
-12 -34 -27z"/>
<path d="M2545 7779 c-33 -29 -45 -50 -27 -48 9 1 77 79 69 79 -4 0 -22 -14
-42 -31z"/>
<path d="M6176 6814 c-4 -9 -4 -19 -1 -22 2 -3 7 3 11 12 4 9 4 19 1 22 -2 3
-7 -3 -11 -12z"/>
<path d="M5588 6790 c-4 -12 -140 -16 -308 -8 l-125 6 -44 -30 c-28 -19 -47
-26 -55 -20 -6 6 -20 6 -32 2 -21 -8 -94 -87 -94 -101 0 -4 -9 -11 -20 -14
-27 -8 -33 -41 -22 -105 8 -40 7 -63 -4 -92 -17 -50 -8 -180 16 -223 12 -22
25 -31 49 -33 18 -2 41 -12 52 -23 16 -16 28 -19 58 -14 30 5 40 3 44 -9 4 -9
18 -16 34 -16 15 0 65 -12 112 -26 115 -36 194 -36 262 0 28 14 56 26 62 26
13 0 87 50 87 59 0 3 -52 5 -115 4 -74 -1 -141 4 -188 14 -39 8 -78 16 -86 16
-8 0 -23 9 -33 19 -10 10 -25 18 -33 18 -8 0 -15 6 -15 13 0 8 18 12 55 13 30
1 61 6 68 11 22 18 57 22 57 7 0 -11 7 -13 28 -7 15 4 44 7 64 6 26 -2 36 1
32 10 -5 14 38 32 101 42 33 5 54 0 117 -30 42 -19 89 -35 103 -35 l27 0 -23
19 c-20 16 -22 23 -13 38 10 16 5 26 -35 65 -49 50 -164 115 -215 122 -122 17
-243 41 -251 48 -18 16 26 38 78 38 26 0 58 5 69 11 28 15 172 -4 248 -33 58
-22 115 -68 130 -105 11 -27 71 -66 82 -55 4 4 3 23 -2 42 -13 46 -13 50 5 50
21 0 19 17 -10 66 -14 24 -38 48 -55 56 -19 8 -37 27 -47 51 -11 24 -24 37
-36 37 -10 0 -16 4 -13 9 3 5 0 8 -7 8 -6 -1 -43 13 -80 31 -78 36 -74 35 -79
22z m-11 -316 c-3 -3 -12 -4 -19 -1 -8 3 -5 6 6 6 11 1 17 -2 13 -5z m-213
-55 c-7 -12 -41 -12 -49 0 -9 15 28 31 42 19 7 -6 10 -14 7 -19z m126 11 c43
-22 60 -55 39 -75 -16 -14 -139 -58 -146 -52 -2 3 10 18 27 35 24 24 30 39 30
71 0 23 2 41 5 41 3 0 23 -9 45 -20z m-322 -42 c6 -28 10 -53 8 -55 -2 -2 -20
3 -40 11 -28 12 -36 21 -36 40 0 21 31 56 50 56 3 0 11 -23 18 -52z"/>
<path d="M6283 6567 c-67 -101 -73 -120 -93 -284 -11 -87 -29 -192 -40 -233
-22 -84 -24 -100 -12 -100 5 0 15 19 22 43 7 23 40 93 72 156 65 125 89 208
87 303 -1 34 4 76 10 91 13 33 14 74 3 81 -5 3 -27 -23 -49 -57z"/>
<path d="M5815 6430 c10 -11 20 -18 23 -16 5 6 -23 36 -34 36 -4 0 1 -9 11
-20z"/>
<path d="M6099 6035 c-4 -5 -7 -67 -7 -136 -1 -69 -5 -136 -10 -150 -9 -24
-26 -163 -17 -144 2 6 15 66 29 135 21 104 24 140 18 215 -4 50 -10 86 -13 80z"/>
<path d="M4840 4835 c0 -17 -7 -28 -22 -34 -21 -8 -21 -8 3 -14 13 -4 28 -2
33 3 6 6 22 10 36 10 31 0 70 26 70 47 0 12 -3 13 -14 4 -13 -11 -71 -10 -83
2 -13 14 -23 6 -23 -18z"/>
<path d="M4757 4835 c-16 -12 -16 -14 -2 -29 21 -20 31 -20 39 1 10 26 -15 45
-37 28z"/>
<path d="M5770 4569 c0 -5 -5 -7 -12 -3 -7 4 -8 3 -4 -4 4 -6 2 -21 -4 -33 -9
-16 -19 -20 -42 -17 -24 4 -29 2 -25 -12 3 -11 -1 -17 -11 -16 -20 1 -71 -72
-72 -101 0 -17 -6 -23 -21 -23 -14 0 -19 5 -16 15 4 8 2 17 -2 20 -13 8 -32
-20 -35 -52 -1 -15 -7 -27 -13 -26 -6 1 -21 -19 -34 -45 -32 -62 -71 -122 -80
-122 -4 0 -9 -7 -13 -15 -11 -30 32 -15 73 25 24 24 35 40 26 40 -8 0 -15 4
-15 8 0 15 125 128 140 127 15 -1 15 -26 0 -35 -13 -8 -24 -60 -12 -60 19 0
127 132 159 195 40 78 53 145 29 145 -9 0 -16 -5 -16 -11z m-86 -124 c-4 -8
-8 -15 -10 -15 -2 0 -4 7 -4 15 0 8 4 15 10 15 5 0 7 -7 4 -15z"/>
<path d="M5407 4062 c-53 -51 -67 -66 -62 -70 3 -3 -9 -18 -25 -34 -16 -15
-26 -28 -22 -28 12 0 -22 -20 -35 -20 -7 0 -13 9 -13 20 0 26 -4 25 -45 -6
-19 -14 -46 -29 -62 -33 -15 -4 -32 -17 -38 -29 -10 -23 -35 -30 -35 -11 0 15
-59 3 -80 -16 -9 -8 -22 -15 -28 -15 -15 0 -82 -67 -74 -74 3 -3 14 -6 24 -6
10 0 18 -7 18 -16 0 -13 -3 -14 -13 -5 -16 13 -27 5 -27 -21 0 -24 29 -23 59
3 18 15 21 23 13 31 -31 31 2 73 48 63 l30 -7 -22 -18 c-33 -28 -13 -24 57 9
33 16 75 34 94 40 l34 11 -29 -28 c-16 -15 -58 -49 -94 -76 -74 -56 -107 -93
-93 -107 12 -12 71 30 183 130 106 95 146 123 176 125 13 0 26 7 29 14 3 8 0
10 -7 6 -7 -4 -8 -3 -4 4 4 7 12 12 18 12 11 0 40 30 66 68 13 21 13 24 -3 36
-13 9 -15 15 -7 20 16 10 15 46 0 45 -7 0 -21 -8 -31 -17z"/>
<path d="M3461 3584 c0 -11 3 -14 6 -6 3 7 2 16 -1 19 -3 4 -6 -2 -5 -13z"/>
<path d="M3472 3408 c-15 -15 -16 -38 -2 -38 12 0 23 25 18 40 -2 7 -7 7 -16
-2z"/>
<path d="M6500 3236 c0 -16 152 -84 225 -101 l30 -7 -29 23 c-39 31 -226 101
-226 85z"/>
<path d="M6846 3072 c-7 -12 4 -24 52 -56 23 -16 42 -33 42 -37 0 -5 8 -9 18
-9 9 0 31 -9 48 -19 37 -22 120 -39 110 -22 -4 6 -42 29 -85 50 -43 21 -95 50
-117 63 -61 38 -62 39 -68 30z"/>
<path d="M5050 2922 c0 -5 7 -17 15 -28 18 -24 19 -34 2 -34 -7 0 -24 -13 -39
-30 -14 -16 -35 -30 -46 -30 -11 0 -55 -23 -98 -51 -44 -29 -146 -92 -228
-141 -143 -85 -247 -158 -275 -192 -17 -20 -3 -21 18 -2 9 8 85 49 169 91 84
42 212 116 285 164 150 99 178 113 198 100 8 -5 28 -9 46 -9 17 0 34 -4 37 -9
3 -4 18 -11 34 -14 27 -6 262 -158 306 -198 11 -11 63 -45 114 -76 52 -30 112
-70 135 -87 106 -80 148 -108 154 -102 19 19 -160 221 -251 283 -23 15 -108
78 -191 139 -134 99 -195 139 -328 213 -40 22 -57 26 -57 13z"/>
<path d="M7184 2871 c7 -11 95 -35 103 -28 8 9 -60 37 -87 37 -12 0 -19 -4
-16 -9z"/>
<path d="M3552 2680 c0 -14 2 -19 5 -12 2 6 2 18 0 25 -3 6 -5 1 -5 -13z"/>
<path d="M2649 2673 c16 -32 54 -61 131 -102 l75 -41 -55 51 c-96 88 -175 136
-151 92z"/>
<path d="M4155 2363 l-50 -46 43 24 c38 21 70 55 60 64 -2 2 -25 -17 -53 -42z"/>
<path d="M3120 2337 c0 -7 24 -27 53 -45 28 -18 63 -43 76 -57 23 -25 74 -34
86 -16 6 11 -47 49 -136 99 -61 35 -79 39 -79 19z"/>
<path d="M3345 2190 c-3 -5 1 -10 9 -10 8 0 18 5 21 10 3 6 -1 10 -9 10 -8 0
-18 -4 -21 -10z"/>
<path d="M3386 2161 c-17 -19 -21 -41 -8 -41 8 0 52 37 52 44 0 14 -31 11 -44
-3z"/>
<path d="M3426 2105 c-9 -26 23 -30 47 -6 l21 21 -31 0 c-19 0 -33 -6 -37 -15z"/>
<path d="M6864 350 c0 -74 1 -105 3 -67 2 37 2 97 0 135 -2 37 -3 6 -3 -68z"/>
<path d="M7017 473 c-6 -9 -11 -132 -6 -148 1 -5 5 26 9 70 6 82 6 92 -3 78z"/>
<path d="M7575 470 c-3 -5 -1 -10 4 -10 6 0 11 5 11 10 0 6 -2 10 -4 10 -3 0
-8 -4 -11 -10z"/>
<path d="M8148 469 c-10 -5 -18 -18 -17 -27 0 -14 2 -14 6 -2 14 35 73 43 73
10 0 -11 -7 -20 -15 -20 -8 0 -15 -7 -15 -14 0 -11 15 -16 53 -18 l52 -3 3
-75 c2 -62 0 -77 -14 -87 -17 -12 -16 -13 3 -13 21 0 22 5 25 117 3 131 -3
150 -47 139 -23 -6 -27 -11 -23 -36 4 -25 1 -30 -16 -29 -12 0 -15 3 -8 6 6 2
12 18 12 34 0 25 -4 29 -27 29 -16 0 -36 -5 -45 -11z m140 -22 c4 -20 -25 -34
-40 -19 -15 15 -1 44 19 40 10 -2 19 -11 21 -21z"/>
<path d="M8320 348 c0 -72 3 -129 6 -125 4 3 6 60 5 126 -2 120 -2 121 21 121
23 0 23 -1 22 -116 -1 -87 -5 -118 -15 -125 -10 -6 -8 -9 9 -9 22 0 22 2 22
130 l0 130 -35 0 -35 0 0 -132z"/>
<path d="M8827 473 c-2 -4 -4 -62 -4 -128 0 -115 1 -116 6 -35 5 70 9 85 24
88 15 3 17 -6 17 -81 0 -59 -4 -87 -12 -90 -7 -3 -3 -6 10 -6 23 -1 23 -1 20
127 l-3 127 -27 3 c-14 2 -28 0 -31 -5z m48 -28 c0 -30 -39 -27 -43 3 -3 20 0
23 20 20 15 -2 23 -10 23 -23z"/>
<path d="M6952 410 c23 -33 44 -58 46 -55 5 5 -71 115 -80 115 -4 0 12 -27 34
-60z"/>
<path d="M7068 351 c3 -108 1 -120 -15 -124 -14 -4 -13 -5 5 -6 22 -1 22 1 22
124 0 69 -3 125 -7 125 -5 0 -7 -54 -5 -119z"/>
<path d="M7711 459 c14 -5 32 -22 38 -36 24 -52 -20 -103 -89 -103 -28 0 -30
-2 -30 -40 0 -27 -6 -42 -17 -49 -16 -9 -16 -10 5 -11 20 0 22 5 22 45 0 43 1
45 30 45 40 0 78 19 86 42 9 30 15 16 23 -59 l8 -68 4 93 c3 71 1 91 -8 87 -7
-2 -13 0 -13 6 0 17 -48 59 -67 58 -12 0 -10 -4 8 -10z"/>
<path d="M8757 456 c22 -10 33 -23 38 -45 12 -54 -26 -91 -96 -91 -27 0 -29
-2 -29 -40 0 -27 -6 -42 -17 -49 -16 -9 -16 -10 5 -11 20 0 22 5 22 45 0 43 1
45 30 45 37 0 85 23 94 45 14 37 6 74 -20 94 -15 12 -34 21 -43 21 -9 -1 -2
-7 16 -14z"/>
<path d="M7571 434 c0 -11 3 -14 6 -6 3 7 2 16 -1 19 -3 4 -6 -2 -5 -13z"/>
<path d="M7630 395 c0 -30 3 -35 24 -35 39 0 56 11 56 35 0 24 -17 35 -56 35
-21 0 -24 -5 -24 -35z m59 16 c21 -14 5 -43 -21 -39 -29 4 -39 48 -11 48 10 0
24 -4 32 -9z"/>
<path d="M8670 395 c0 -36 0 -36 38 -33 34 3 37 6 37 33 0 27 -3 30 -37 33
-38 3 -38 3 -38 -33z m59 16 c19 -12 6 -41 -18 -41 -23 0 -35 15 -27 35 6 17
24 19 45 6z"/>
<path d="M8112 408 c-7 -7 -12 -21 -12 -32 0 -19 0 -19 -21 0 l-21 19 17 -36
c31 -66 -4 -128 -72 -130 -34 0 -36 -1 -16 -11 50 -24 113 33 113 102 0 16 5
30 10 30 6 0 10 -21 11 -47 0 -27 4 -57 8 -68 5 -11 6 10 3 50 -2 39 -9 76
-15 83 -6 8 -5 17 3 27 16 19 8 29 -8 13z"/>
<path d="M7289 403 c-1 -5 0 -17 1 -28 2 -19 0 -18 -26 5 l-27 25 22 -31 c37
-52 27 -68 -48 -74 -58 -5 -63 -6 -47 -20 22 -17 44 -21 52 -9 7 12 54 12 54
0 0 -18 -44 -41 -80 -41 -29 -1 -32 -2 -17 -11 23 -14 70 -3 93 22 9 10 20 36
24 57 l6 37 18 -53 c26 -77 30 -58 5 23 -11 37 -18 76 -16 86 3 11 1 19 -4 19
-5 0 -10 -3 -10 -7z m-86 -120 c-7 -2 -19 -2 -25 0 -7 3 -2 5 12 5 14 0 19 -2
13 -5z"/>
<path d="M7334 393 c4 -11 12 -40 19 -64 l14 -44 16 57 c22 72 21 85 -2 29
l-18 -45 -7 37 c-4 20 -12 39 -17 43 -7 4 -9 -1 -5 -13z"/>
<path d="M7456 373 c7 -21 13 -46 14 -55 0 -10 5 -18 10 -18 6 0 10 8 10 18 1
9 7 34 14 55 8 20 10 37 6 37 -5 0 -11 -13 -15 -30 -7 -33 -25 -41 -25 -11 0
10 -6 24 -14 30 -12 10 -12 6 0 -26z"/>
<path d="M7550 396 c0 -6 -10 -44 -22 -84 -15 -53 -27 -76 -42 -82 -20 -8 -19
-9 4 -9 24 -1 27 6 50 87 l25 87 3 -80 c2 -44 8 -84 14 -90 8 -7 9 -5 4 8 -3
10 -6 54 -6 96 0 62 -3 78 -15 78 -8 0 -15 -5 -15 -11z"/>
<path d="M7820 400 c0 -13 18 -22 24 -11 3 5 -1 11 -9 15 -8 3 -15 1 -15 -4z"/>
<path d="M7890 388 c0 -19 -7 -29 -22 -34 -32 -9 -38 -22 -38 -76 0 -28 -5
-48 -12 -51 -8 -3 -6 -6 5 -6 12 -1 17 7 17 28 0 63 11 89 39 93 25 4 27 1 30
-31 1 -20 5 -39 9 -43 4 -4 5 13 3 38 -2 25 2 51 8 57 6 6 11 16 11 21 0 6 -5
5 -12 -2 -10 -10 -15 -7 -25 10 l-12 23 -1 -27z"/>
<path d="M9605 338 c-4 -43 -2 -83 4 -98 8 -20 10 -4 10 73 1 53 -1 97 -3 97
-2 0 -7 -33 -11 -72z"/>
<path d="M9650 400 c0 -5 5 -10 11 -10 5 0 7 5 4 10 -3 6 -8 10 -11 10 -2 0
-4 -4 -4 -10z"/>
<path d="M7122 377 c-12 -13 -24 -37 -28 -54 -5 -25 0 -36 26 -64 27 -28 29
-29 11 -5 -27 37 -27 86 0 120 25 32 20 34 -9 3z"/>
<path d="M8571 367 c31 -54 21 -67 -50 -67 -51 0 -59 -2 -54 -16 5 -13 16 -15
60 -9 52 6 54 6 44 -13 -13 -24 -32 -32 -74 -32 -26 -1 -29 -2 -15 -11 44 -25
118 35 118 96 0 22 -9 44 -25 62 l-26 28 22 -38z m-58 -84 c-7 -2 -19 -2 -25
0 -7 3 -2 5 12 5 14 0 19 -2 13 -5z"/>
<path d="M9068 380 c6 -9 12 -22 12 -28 0 -15 -36 -16 -45 -2 -9 14 -48 13
-63 -2 -23 -23 -8 -78 20 -78 5 0 2 11 -7 24 -8 13 -13 31 -9 40 7 18 39 22
49 6 8 -13 75 -13 75 -1 0 6 -10 20 -22 33 -13 13 -17 17 -10 8z"/>
<path d="M9211 374 c-25 -32 -27 -81 -5 -113 21 -29 79 -54 107 -45 31 9 67
44 67 66 0 24 -52 25 -71 1 -13 -16 -12 -17 3 -5 9 8 27 12 38 10 l22 -3 -22
-27 c-17 -22 -30 -28 -61 -28 -78 0 -117 82 -68 144 11 14 18 26 15 26 -2 0
-14 -12 -25 -26z"/>
<path d="M8916 361 c-9 -16 -16 -37 -16 -46 0 -22 30 -78 38 -71 3 4 0 12 -6
18 -7 7 -12 30 -12 53 0 23 5 46 12 53 6 6 9 14 6 18 -4 3 -14 -8 -22 -25z"/>
<path d="M9359 373 c6 -12 11 -24 11 -27 0 -10 -49 -6 -55 4 -3 6 -17 10 -31
10 -45 0 -53 -70 -10 -92 20 -11 20 -10 4 9 -37 41 -10 92 33 65 25 -16 69
-15 69 1 0 7 -7 22 -16 33 -15 18 -15 18 -5 -3z"/>
<path d="M9405 360 c-18 -34 -12 -92 11 -110 10 -9 10 -3 -2 27 -14 36 -14 43
0 76 18 45 13 49 -9 7z"/>
<path d="M9565 356 c28 -67 -6 -125 -75 -126 -28 0 -32 -3 -18 -11 24 -13 62
-2 90 28 29 31 32 103 5 130 -17 17 -17 17 -2 -21z"/>
<path d="M9880 371 c15 -28 13 -138 -2 -144 -8 -3 -6 -6 5 -6 15 -1 17 9 17
68 0 73 -6 101 -21 101 -6 0 -5 -8 1 -19z"/>
<path d="M6913 314 c2 -46 -1 -71 -11 -80 -11 -12 -10 -14 7 -14 18 0 20 7 23
62 l3 62 39 -57 c39 -57 64 -81 30 -29 -9 15 -31 48 -48 74 -17 26 -34 48 -39
48 -4 0 -6 -30 -4 -66z"/>
<path d="M8409 342 c-9 -32 -8 -44 5 -70 9 -18 19 -32 22 -32 2 0 0 10 -7 21
-6 12 -9 44 -7 70 3 27 4 49 2 49 -2 0 -8 -17 -15 -38z"/>
<path d="M7178 363 c-33 -8 -20 -33 17 -33 23 0 35 5 35 14 0 11 -26 30 -33
25 -1 -1 -10 -3 -19 -6z"/>
<path d="M8478 359 c-30 -17 -20 -29 22 -29 43 0 52 13 21 30 -23 12 -22 12
-43 -1z"/>
<path d="M7972 348 c-15 -15 -16 -50 0 -66 21 -21 29 -13 13 11 -13 20 -13 26
-1 42 17 24 46 13 46 -18 0 -13 -6 -29 -12 -36 -11 -11 -10 -13 2 -9 10 3 15
18 15 44 0 34 -3 39 -25 42 -14 2 -31 -3 -38 -10z"/>
<path d="M8180 300 c0 -46 -4 -61 -17 -69 -16 -9 -16 -10 5 -11 21 0 22 4 22
65 0 58 2 65 20 65 18 0 20 -7 20 -59 0 -35 5 -63 12 -67 8 -5 9 -2 5 10 -4
10 -7 42 -7 72 0 53 0 54 -30 54 -30 0 -30 0 -30 -60z"/>
<path d="M8610 304 c0 -32 5 -66 10 -74 6 -10 7 10 3 55 -7 88 -13 97 -13 19z"/>
<path d="M9454 336 c-8 -33 4 -66 23 -66 14 0 14 2 -1 19 -24 26 -13 63 17 59
17 -2 22 -10 22 -35 0 -17 3 -29 7 -26 5 2 8 13 8 23 0 35 -12 50 -41 50 -22
0 -30 -6 -35 -24z"/>
<path d="M9666 345 c-3 -9 -6 -36 -6 -60 0 -31 -5 -47 -17 -54 -16 -9 -16 -10
5 -11 20 0 22 5 22 53 0 59 11 83 34 74 11 -4 16 -24 19 -69 l4 -63 -1 70 c-1
68 -2 70 -27 73 -17 2 -29 -3 -33 -13z"/>
<path d="M9787 353 c-4 -3 -7 -30 -7 -59 0 -40 -4 -56 -17 -63 -16 -9 -16 -10
4 -11 20 0 22 6 25 63 3 54 5 62 23 62 17 0 21 -9 26 -60 l6 -60 1 52 c1 28
-1 58 -4 67 -6 16 -45 22 -57 9z"/>
<path d="M7405 286 c-10 -34 -23 -56 -33 -59 -12 -3 -11 -5 5 -6 18 -1 24 7
33 41 l12 42 19 -40 c11 -21 17 -31 15 -22 -3 9 -10 35 -16 57 -6 23 -13 41
-15 41 -2 0 -12 -24 -20 -54z"/>
<path d="M9027 293 c-4 -3 -7 -11 -7 -17 0 -6 5 -5 12 2 17 17 48 15 48 -2 0
-22 -40 -46 -80 -47 -32 0 -33 -1 -13 -11 31 -15 80 7 98 43 8 15 15 30 15 34
0 7 -65 6 -73 -2z"/>
<path d="M9107 267 c-3 -8 -2 -19 3 -26 5 -9 9 -4 12 13 5 27 -6 36 -15 13z"/>
<path d="M9166 266 c5 -13 1 -23 -12 -33 -19 -14 -19 -15 1 -11 23 4 32 35 15
52 -8 8 -9 6 -4 -8z"/>
</g>
</svg>
